<?xml version="1.0" encoding="utf-8"?>
<!-- Generator: Adobe Illustrator 25.2.3, SVG Export Plug-In . SVG Version: 6.00 Build 0)  -->
<svg version="1.1" xmlns="http://www.w3.org/2000/svg" xmlns:xlink="http://www.w3.org/1999/xlink" x="0px" y="0px"
	 viewBox="0 0 750 500" style="enable-background:new 0 0 750 500;" xml:space="preserve">
<style type="text/css">
	.st0{fill:#BCD3F5;}
	.st1{fill:#FF4147;}
	.st2{fill:#184CFF;}
	.st3{fill:#131313;}
	.st4{fill:#0F4CC7;}
	.st5{fill:#F5B3BF;}
	.st6{fill:#4AAD7F;}
	.st7{fill:#FFFFFF;}
	.st8{enable-background:new    ;}
	.st9{fill:none;stroke:#000000;stroke-width:0.8408;stroke-miterlimit:10;}
</style>
<g id="BACKGROUND">
</g>
<g id="OBJECTS">
	<g>
		<polygon class="st0" points="398.65,250.62 704.97,0.62 477.83,0.91 132.84,250.62 		"/>
		<polygon class="st1" points="504.19,500.5 750.69,250.5 398.65,250.88 132.84,500.5 		"/>
		<polygon class="st2" points="0.63,438.99 531.66,0.62 266.44,0 0.63,236.38 		"/>
		<g>
			<g>
				<rect x="266.44" y="9.58" class="st3" width="5.54" height="14.21"/>
				<rect x="281.45" y="9.58" class="st3" width="5.54" height="14.21"/>
				<rect x="296.46" y="9.58" class="st3" width="5.54" height="14.21"/>
				<rect x="311.48" y="9.58" class="st3" width="5.54" height="14.21"/>
				<rect x="326.49" y="9.58" class="st3" width="5.54" height="14.21"/>
				<rect x="341.5" y="9.58" class="st3" width="5.54" height="14.21"/>
			</g>
			<g>
				<rect x="358.75" y="9.58" class="st3" width="5.54" height="14.21"/>
				<rect x="373.76" y="9.58" class="st3" width="5.54" height="14.21"/>
				<rect x="388.77" y="9.58" class="st3" width="5.54" height="14.21"/>
				<rect x="403.78" y="9.58" class="st3" width="5.54" height="14.21"/>
				<rect x="418.8" y="9.58" class="st3" width="5.54" height="14.21"/>
				<rect x="433.81" y="9.58" class="st3" width="5.54" height="14.21"/>
			</g>
			<g>
				<rect x="451.05" y="9.58" class="st3" width="5.54" height="14.21"/>
				<rect x="466.07" y="9.58" class="st3" width="5.54" height="14.21"/>
				<rect x="481.08" y="9.58" class="st3" width="5.54" height="14.21"/>
				<rect x="496.09" y="9.58" class="st3" width="5.54" height="14.21"/>
				<rect x="511.1" y="9.58" class="st3" width="5.54" height="14.21"/>
				<rect x="526.12" y="9.58" class="st3" width="5.54" height="14.21"/>
			</g>
		</g>
		<g>
			<polygon class="st4" points="751.7,66.54 691.1,66.54 721.79,111.28 			"/>
			<polygon class="st1" points="751.7,33.21 691.1,33.21 721.79,77.95 			"/>
		</g>
		<g>
			<path class="st3" d="M1.22,500.62c0-48.83,39.58-88.41,88.41-88.41s88.41,39.58,88.41,88.41"/>
			<path class="st5" d="M178.03,500.62c0-48.83,39.58-88.41,88.41-88.41c48.83,0,88.41,39.58,88.41,88.41"/>
			<path class="st6" d="M354.84,500.62c0-48.83,39.58-88.41,88.41-88.41c48.83,0,88.41,39.58,88.41,88.41H354.84z"/>
		</g>
		<g>
			<rect x="531.66" y="0.62" class="st3" width="24.12" height="250"/>
			<rect x="567.59" y="0.62" class="st3" width="24.12" height="250"/>
			<rect x="603.52" y="0.62" class="st3" width="24.12" height="250"/>
			<rect x="639.45" y="0.62" class="st3" width="24.82" height="250"/>
		</g>
		<g>
			<g>
				<polyline class="st3" points="266.05,313.86 266.05,250.62 332.74,250.62 				"/>
				<polyline class="st3" points="332.74,313.86 332.74,250.62 399.05,250.62 				"/>
				<polyline class="st3" points="399.05,313.86 399.05,250.62 465.35,250.62 				"/>
				<polyline class="st3" points="465.35,313.86 465.35,250.62 531.66,250.62 				"/>
				<polyline class="st3" points="531.66,313.86 531.66,250.62 597.96,250.62 				"/>
				<polyline class="st3" points="597.96,313.86 597.96,250.62 664.27,250.62 				"/>
			</g>
			<g>
				<polyline class="st3" points="266.05,375.47 266.05,312.23 333.33,312.23 				"/>
				<polyline class="st3" points="332.74,375.47 332.74,312.23 399.15,312.89 				"/>
				<polyline class="st3" points="399.05,375.47 399.05,312.23 465.35,312.23 				"/>
				<polyline class="st3" points="465.35,375.47 465.35,312.23 531.66,312.23 				"/>
				<polyline class="st3" points="531.66,375.47 531.66,312.23 597.96,312.23 				"/>
				<polyline class="st3" points="597.96,375.47 597.96,312.23 664.27,312.23 				"/>
			</g>
		</g>
		
			<ellipse transform="matrix(0.7071 -0.7071 0.7071 0.7071 -53.9857 131.1809)" class="st1" cx="131.36" cy="130.76" rx="129.72" ry="129.72"/>
		<g>
			<g>
				<g>
					<path class="st7" d="M182.17,111.28c-13.3,0-20.3-3.55-26.48-6.68c-5.99-3.04-11.16-5.66-22.21-5.66
						c-11.04,0-16.21,2.62-22.2,5.66c-6.18,3.13-13.18,6.68-26.47,6.68c-13.3,0-20.3-3.55-26.47-6.68
						c-5.99-3.04-11.16-5.66-22.2-5.66v-9.44c13.3,0,20.3,3.55,26.47,6.68c5.99,3.04,11.16,5.66,22.2,5.66
						c11.04,0,16.21-2.62,22.2-5.66c6.18-3.13,13.18-6.68,26.47-6.68c13.3,0,20.3,3.55,26.48,6.68c5.99,3.04,11.16,5.66,22.21,5.66
						c11.04,0,16.22-2.62,22.21-5.66c6.18-3.13,13.18-6.68,26.48-6.68v9.44c-11.04,0-16.22,2.62-22.21,5.66
						C202.47,107.73,195.47,111.28,182.17,111.28z"/>
				</g>
			</g>
			<g>
				<g>
					<path class="st7" d="M182.17,132.91c-13.3,0-20.3-3.55-26.48-6.68c-5.99-3.04-11.16-5.66-22.21-5.66
						c-11.04,0-16.21,2.62-22.2,5.66c-6.18,3.13-13.18,6.68-26.47,6.68c-13.3,0-20.3-3.55-26.47-6.68
						c-5.99-3.04-11.16-5.66-22.2-5.66v-9.44c13.3,0,20.3,3.55,26.47,6.68c5.99,3.04,11.16,5.66,22.2,5.66
						c11.04,0,16.21-2.62,22.2-5.66c6.18-3.13,13.18-6.68,26.47-6.68c13.3,0,20.3,3.55,26.48,6.68c5.99,3.04,11.16,5.66,22.21,5.66
						c11.04,0,16.22-2.62,22.21-5.66c6.18-3.13,13.18-6.68,26.48-6.68v9.44c-11.04,0-16.22,2.62-22.21,5.66
						C202.47,129.36,195.47,132.91,182.17,132.91z"/>
				</g>
			</g>
			<g>
				<g>
					<path class="st7" d="M182.17,154.55c-13.3,0-20.3-3.55-26.48-6.68c-5.99-3.04-11.16-5.66-22.21-5.66
						c-11.04,0-16.21,2.62-22.2,5.66c-6.18,3.13-13.18,6.68-26.47,6.68c-13.3,0-20.3-3.55-26.47-6.68
						c-5.99-3.04-11.16-5.66-22.2-5.66v-9.44c13.3,0,20.3,3.55,26.47,6.68c5.99,3.04,11.16,5.66,22.2,5.66
						c11.04,0,16.21-2.62,22.2-5.66c6.18-3.13,13.18-6.68,26.47-6.68c13.3,0,20.3,3.55,26.48,6.68c5.99,3.04,11.16,5.66,22.21,5.66
						c11.04,0,16.22-2.62,22.21-5.66c6.18-3.13,13.18-6.68,26.48-6.68v9.44c-11.04,0-16.22,2.62-22.21,5.66
						C202.47,151,195.47,154.55,182.17,154.55z"/>
				</g>
			</g>
			<g>
				<g>
					<path class="st7" d="M182.17,176.19c-13.3,0-20.3-3.55-26.48-6.68c-5.99-3.04-11.16-5.66-22.21-5.66
						c-11.04,0-16.21,2.62-22.2,5.66c-6.18,3.13-13.18,6.68-26.47,6.68c-13.3,0-20.3-3.55-26.47-6.68
						c-5.99-3.04-11.16-5.66-22.2-5.66v-9.44c13.3,0,20.3,3.55,26.47,6.68c5.99,3.04,11.16,5.66,22.2,5.66
						c11.04,0,16.21-2.62,22.2-5.66c6.18-3.13,13.18-6.68,26.47-6.68c13.3,0,20.3,3.55,26.48,6.68c5.99,3.04,11.16,5.66,22.21,5.66
						c11.04,0,16.22-2.62,22.21-5.66c6.18-3.13,13.18-6.68,26.48-6.68v9.44c-11.04,0-16.22,2.62-22.21,5.66
						C202.47,172.64,195.47,176.19,182.17,176.19z"/>
				</g>
			</g>
		</g>
		<g>
			<g class="st8">
				<g>
					<g>
						<polygon class="st3" points="187.91,174.24 186.16,141.63 306.75,40.16 308.5,72.77 						"/>
					</g>
				</g>
				<g>
					<polygon class="st7" points="308.5,72.77 306.75,40.16 366.86,161.42 368.61,194.04 					"/>
				</g>
				<g>
					<polygon class="st5" points="368.61,194.04 187.91,174.24 308.5,72.77 					"/>
				</g>
			</g>
		</g>
		<g>
			<g class="st8">
				<g>
					<polygon class="st2" points="465.38,250.64 490.87,271.56 488.08,432.94 462.59,412.02 					"/>
				</g>
				<g>
					<polygon class="st7" points="462.59,412.02 488.08,432.94 358.41,396.06 332.92,375.14 					"/>
				</g>
				<g>
					<polygon class="st5" points="332.92,375.14 465.38,250.64 462.59,412.02 					"/>
				</g>
			</g>
		</g>
		<path class="st6" d="M705.69,500.62h-41.42V170.8c0-24.95,20.23-45.18,45.18-45.18h41.42v329.44
			C750.87,480.01,730.64,500.62,705.69,500.62z"/>
		<g>
			<rect x="694.93" y="199.41" class="st3" width="10.63" height="197.3"/>
			<rect x="710.77" y="199.41" class="st3" width="10.63" height="197.3"/>
		</g>
		<g>
			
				<rect x="227.8" y="281.2" transform="matrix(-1.836970e-16 1 -1 -1.836970e-16 613.9387 147.7014)" class="st3" width="10.63" height="199.25"/>
			
				<rect x="227.8" y="297.03" transform="matrix(-1.836970e-16 1 -1 -1.836970e-16 629.7736 163.5364)" class="st3" width="10.63" height="199.25"/>
		</g>
		<g>
			<g>
				<polygon class="st2" points="476.83,49.52 476.83,110.11 529.54,79.43 				"/>
				<polygon class="st6" points="437.56,49.52 437.56,110.11 490.27,79.43 				"/>
			</g>
			<polygon class="st1" points="399.16,49.52 399.16,110.11 451.88,79.43 			"/>
		</g>
		<g>
			<g>
				<rect x="132.72" y="412.21" class="st3" width="5.56" height="14.89"/>
				<rect x="147.8" y="412.21" class="st3" width="5.56" height="14.89"/>
				<rect x="162.88" y="412.21" class="st3" width="5.56" height="14.89"/>
				<rect x="177.96" y="412.21" class="st3" width="5.56" height="14.89"/>
				<rect x="193.04" y="412.21" class="st3" width="5.56" height="14.89"/>
				<rect x="208.13" y="412.21" class="st3" width="5.56" height="14.89"/>
			</g>
			<g>
				<rect x="225.45" y="412.21" class="st3" width="5.56" height="14.89"/>
				<rect x="240.53" y="412.21" class="st3" width="5.56" height="14.89"/>
				<rect x="255.61" y="412.21" class="st3" width="5.56" height="14.89"/>
				<rect x="270.69" y="412.21" class="st3" width="5.56" height="14.89"/>
				<rect x="285.77" y="412.21" class="st3" width="5.56" height="14.89"/>
				<rect x="300.85" y="412.21" class="st3" width="5.56" height="14.89"/>
			</g>
			<g>
				<rect x="318.17" y="412.21" class="st3" width="5.56" height="14.89"/>
				<rect x="333.25" y="412.21" class="st3" width="5.56" height="14.89"/>
				<rect x="348.33" y="412.21" class="st3" width="5.56" height="14.89"/>
				<rect x="363.41" y="412.21" class="st3" width="5.56" height="14.89"/>
				<rect x="378.49" y="412.21" class="st3" width="5.56" height="14.89"/>
				<rect x="393.57" y="412.21" class="st3" width="5.56" height="14.89"/>
			</g>
		</g>
		<path class="st6" d="M266.05,375.47H133.44v-67.79c0-31.51,25.55-57.06,57.06-57.06h75.55V375.47z"/>
		<polygon class="st7" points="202.68,265.47 210.15,290.85 231.12,274.71 222.25,299.64 248.7,298.91 226.87,313.86 248.7,328.82 
			222.25,328.09 231.12,353.01 210.15,336.88 202.68,362.26 195.2,336.88 174.23,353.01 183.1,328.09 156.65,328.82 178.48,313.86 
			156.65,298.91 183.1,299.64 174.23,274.71 195.2,290.85 		"/>
		<g>
			<ellipse class="st4" cx="463.92" cy="177.98" rx="66.65" ry="66.7"/>
			<ellipse class="st7" cx="463.92" cy="177.98" rx="43.72" ry="43.76"/>
			<ellipse class="st3" cx="463.92" cy="178.09" rx="31.09" ry="31.11"/>
		</g>
		<g>
			<ellipse class="st4" cx="422.65" cy="345.67" rx="28.4" ry="28.42"/>
			<ellipse class="st7" cx="422.65" cy="345.67" rx="18.63" ry="18.65"/>
			
				<ellipse transform="matrix(1.201849e-03 -1 1 1.201849e-03 76.4714 767.9091)" class="st3" cx="422.65" cy="345.67" rx="13.26" ry="13.25"/>
		</g>
		<g>
			<ellipse class="st4" cx="597.61" cy="438.41" rx="65.96" ry="62.9"/>
			<ellipse class="st7" cx="597.61" cy="438.41" rx="43.27" ry="41.26"/>
		</g>
		<polygon class="st3" points="751.7,0.62 691.1,0.62 721.79,45.36 		"/>
		<g>
			<g>
				<rect x="594.95" y="392.22" class="st4" width="5.33" height="92.37"/>
				
					<rect x="594.95" y="392.22" transform="matrix(-1.836970e-16 1 -1 -1.836970e-16 1036.0206 -159.2082)" class="st4" width="5.33" height="92.37"/>
			</g>
			<g>
				
					<rect x="594.95" y="392.22" transform="matrix(0.7071 0.7071 -0.7071 0.7071 485.0372 -294.171)" class="st4" width="5.33" height="92.37"/>
				
					<rect x="594.95" y="392.22" transform="matrix(-0.7071 0.7071 -0.7071 -0.7071 1330.1917 325.8289)" class="st4" width="5.33" height="92.37"/>
			</g>
			<g>
				
					<rect x="594.95" y="392.22" transform="matrix(0.3603 0.9328 -0.9328 0.3603 791.2506 -277.0294)" class="st4" width="5.33" height="92.37"/>
				
					<rect x="594.95" y="392.22" transform="matrix(-0.9328 0.3603 -0.3603 -0.9328 1313.0466 632.0549)" class="st4" width="5.33" height="92.37"/>
			</g>
			<g>
				
					<rect x="594.95" y="392.22" transform="matrix(0.8994 0.4372 -0.4372 0.8994 251.7992 -217.1507)" class="st4" width="5.33" height="92.37"/>
				
					<rect x="594.95" y="392.22" transform="matrix(-0.4372 0.8994 -0.8994 -0.4372 1253.1801 92.6074)" class="st4" width="5.33" height="92.37"/>
			</g>
		</g>
		<g>
			<rect x="1.22" y="195.85" class="st3" width="13.18" height="179.58"/>
			<rect x="15.54" y="195.85" class="st3" width="12.09" height="179.58"/>
			<rect x="29.87" y="195.85" class="st3" width="10.99" height="179.58"/>
			<rect x="44.19" y="195.85" class="st3" width="9.89" height="179.58"/>
			<rect x="58.52" y="195.85" class="st3" width="8.79" height="179.58"/>
			<rect x="72.84" y="195.85" class="st3" width="7.69" height="179.58"/>
			<rect x="87.17" y="195.85" class="st3" width="6.59" height="179.58"/>
			<rect x="101.49" y="195.85" class="st3" width="5.49" height="179.58"/>
			<rect x="115.82" y="195.85" class="st3" width="4.39" height="179.58"/>
			<rect x="130.14" y="195.85" class="st3" width="3.3" height="179.58"/>
		</g>
		<polyline class="st9" points="1.63,64.56 195.83,64.56 332.74,203.56 332.74,500.24 		"/>
		<polyline class="st9" points="750.87,125.62 640.88,125.62 422.65,343.85 		"/>
	</g>
</g>
</svg>
